<?xml version="1.0" encoding="UTF-8"?> <!-- Generator: Adobe Illustrator 16.0.0, SVG Export Plug-In . SVG Version: 6.00 Build 0) --> <svg xmlns="http://www.w3.org/2000/svg" xmlns:xlink="http://www.w3.org/1999/xlink" version="1.1" id="Layer_1" x="0px" y="0px" width="500px" height="547.824px" viewBox="0 0 500 547.824" xml:space="preserve"> <g> <path fill="#65A844" d="M340.669,129.657c-1.438,15.976-10.117,28.452-26.182,29.552c-2.941,0.199-5.572,0.51-5.85-3.927 c-0.938-14.842,8.121-28.886,21.801-33.23C339.544,119.159,340.86,120.141,340.669,129.657L340.669,129.657z"></path> <path fill="#65A844" d="M236.762,120.317c-1.145,4.482-2.34,11.947-7.452,13.271c-5.279,1.371-9.747-4.753-13.113-9.365 c-6.762-9.258-8.413-19.301-3.816-30.042c0.861-2.015,1.275-4.589,4.728-3.778C227.454,92.83,238.398,108.628,236.762,120.317 L236.762,120.317z"></path> <path fill="#65A844" d="M160.337,139.645c18.411,0.281,29.062,10.31,29.563,26.893c0.13,4.271-0.998,6.002-5.665,5.82 c-15.078-0.589-27.615-11.753-29.962-26.701C153.301,139.482,156.704,139.296,160.337,139.645L160.337,139.645z"></path> <path fill="#80C343" d="M241.406,78.532c-0.065-8.149,6.393-21.782,10.548-22.278c3.369-0.403,11.102,11.536,12.635,19.498 c1.699,8.835-2.91,19.289-10.279,24.559c-3.074,2.197-4.363,1.068-6.142-1.413C244.074,93.188,241.463,85.74,241.406,78.532 L241.406,78.532z"></path> <path fill="#65A844" d="M262.056,120.286c-0.064-8.149,6.393-21.782,10.547-22.278c3.369-0.403,11.104,11.535,12.635,19.498 c1.699,8.835-2.91,19.288-10.279,24.559c-3.074,2.197-4.363,1.068-6.141-1.413C264.724,134.94,262.112,127.494,262.056,120.286 L262.056,120.286z"></path> <path fill="#65A844" d="M180.7,211.015c-5.09-6.363-8.449-21.07-5.489-24.033c2.396-2.396,15.858,2.2,21.987,7.513 c6.799,5.89,9.642,16.957,7.11,25.651c-1.056,3.631-2.768,3.541-5.703,2.691C191.861,220.881,185.203,216.646,180.7,211.015 L180.7,211.015z"></path> <path fill="#65A844" d="M342.784,215.221c-7.172,3.871-22.242,4.547-24.627,1.106c-1.93-2.789,4.998-15.211,11.32-20.291 c7.008-5.639,18.406-6.457,26.51-2.411c3.381,1.687,2.988,3.353,1.627,6.089C354.485,206.002,349.126,211.797,342.784,215.221 L342.784,215.221z"></path> <path fill="#80C343" d="M312.347,96.57c3.02-0.987,7.283-3.045,10.492-0.579c3.318,2.552,0.508,6.892,0.057,10.261 c-1.482,11.066-11.498,18.05-22.467,16.588c-3.639-0.483-4.695-1.799-4.418-5.517C296.644,108.748,302.946,100.13,312.347,96.57 L312.347,96.57z"></path> <path fill="#65A844" d="M322.048,231.161c3.174,0.13,7.889-0.309,10.033,3.122c2.221,3.548-1.928,6.635-3.527,9.632 c-5.252,9.856-17.076,12.903-26.846,7.703c-3.238-1.724-3.77-3.326-2.215-6.712C303.083,237.091,311.995,231.216,322.048,231.161 L322.048,231.161z"></path> <path fill="#80C343" d="M304.694,79.188c-0.1,1.825-0.063,3.128-0.254,4.398c-1.043,6.851-10.244,16.505-15.125,15.93 c-3.346-0.394-5.668-10.817-4.055-18.406c0.322-1.511,0.658-3.062,1.303-4.444c2.676-5.726,6.533-12.985,12.549-11.88 C304.12,65.71,304.003,74.108,304.694,79.188L304.694,79.188z"></path> <path fill="#80C343" d="M198.5,70.14c1.056,1.489,1.896,2.488,2.531,3.603c3.44,6.017,2.232,19.298-1.951,21.879 c-2.868,1.771-11.164-4.952-14.612-11.901c-0.688-1.383-1.39-2.808-1.742-4.292c-1.462-6.149-2.952-14.234,2.449-17.104 C189.674,59.934,194.799,66.589,198.5,70.14L198.5,70.14z"></path> <path fill="#80C343" d="M358.208,172.857c-1.049,1.494-1.709,2.621-2.543,3.595c-4.512,5.26-17.428,8.581-21.264,5.509 c-2.631-2.105,0.916-12.179,6.305-17.762c1.07-1.111,2.178-2.25,3.459-3.082c5.299-3.44,12.414-7.56,16.932-3.436 C364.856,161.117,360.312,168.181,358.208,172.857L358.208,172.857z"></path> <path fill="#80C343" d="M141.84,167.566c1.724,0.605,2.984,0.938,4.147,1.48c6.284,2.925,12.966,14.466,11.045,18.987 c-1.32,3.102-11.977,2.404-18.806-1.275c-1.357-0.733-2.755-1.49-3.901-2.499c-4.741-4.176-10.629-9.916-7.875-15.377 C128.743,164.333,136.77,166.805,141.84,167.566L141.84,167.566z"></path> <path fill="#80C343" d="M181.174,109.136c14.271,1.024,23.235,10.232,22.498,22.368c-0.187,3.092-0.752,4.709-4.502,4.407 c-10.648-0.854-20.98-9.701-23.192-20.086C174.911,110.825,176.042,108.137,181.174,109.136L181.174,109.136z"></path> <path fill="#65A844" d="M183.587,276.945c13.752-3.944,25.335,1.624,28.815,13.271c0.884,2.968,0.912,4.682-2.713,5.686 c-10.292,2.857-23.036-1.896-28.684-10.888C178.288,280.683,178.425,277.772,183.587,276.945L183.587,276.945z"></path> <path fill="#B3D457" d="M227.685,55.888c0.212,6.661-2.035,10.563-5.939,11.919c-3.456,1.198-5.568-2.738-7.568-5.319 c-4.378-5.65-3.897-11.996-2.393-18.406c0.514-2.186,2.135-4.485,4.226-2.383C220.734,46.45,226.716,50.477,227.685,55.888 L227.685,55.888z"></path> <path fill="#80C343" d="M338.884,267.306c-6.6-0.935-10.059-3.814-10.723-7.896c-0.59-3.608,3.65-5.018,6.537-6.544 c6.316-3.344,12.484-1.781,18.543,0.799c2.064,0.881,4.053,2.871,1.623,4.569C349.372,262.075,344.382,267.277,338.884,267.306 L338.884,267.306z"></path> <path fill="#B3D457" d="M148.12,224.855c4.791,4.632,5.896,8.996,4.038,12.689c-1.644,3.266-5.902,1.915-9.136,1.457 c-7.076-1.007-11.149-5.895-14.535-11.543c-1.153-1.926-1.592-4.703,1.373-4.651C136.559,222.925,143.655,221.646,148.12,224.855 L148.12,224.855z"></path> <path fill="#B3D457" d="M333.569,69.093c-0.018,9.528-3.965,14.535-12.125,16.157c-1.973,0.392-3.898,1.443-5.059-1.521 c-2.338-5.97,1.41-15.275,8.066-19.227c2.154-1.278,4.4-3.718,6.945-2.444C334.419,63.569,332.983,67.152,333.569,69.093 L333.569,69.093z"></path> <path fill="#B3D457" d="M284.632,52.965c-0.814,5.424-7.68,13.155-10.686,11.476c-5.025-2.81-3.672-8.354-3.797-13.077 c-0.012-0.499,0.137-1.024,0.311-1.503c1.779-4.915,3.863-9.844,9.664-10.84C282.353,38.639,285.335,48.296,284.632,52.965 L284.632,52.965z"></path> <path fill="#B3D457" d="M131.093,147.449c-1.124-0.533-1.609-0.728-2.06-0.981c-4.789-2.696-11.613-13.223-9.488-14.819 c3.939-2.958,8.434-0.623,12.45,0.662c6.649,2.13,12.288,10.221,9.846,14.802C138.7,153.007,134.291,147.655,131.093,147.449 L131.093,147.449z"></path> <path fill="#80C343" d="M167.673,265.34c-1.236,0.147-1.75,0.239-2.267,0.265c-5.489,0.261-16.865-5.025-15.913-7.51 c1.764-4.599,6.812-5.013,10.897-6.057c6.764-1.731,15.841,2.125,16.207,7.305C177.071,266.003,170.491,263.817,167.673,265.34 L167.673,265.34z"></path> <path fill="#65A844" d="M309.741,289.488c-1.154,0.459-1.629,0.681-2.121,0.835c-5.24,1.659-17.592-0.538-17.305-3.182 c0.527-4.898,5.301-6.59,8.98-8.646c6.098-3.405,15.855-2.003,17.537,2.91C318.997,287.725,312.073,287.294,309.741,289.488 L309.741,289.488z"></path> <path fill="#B3D457" d="M364.354,217.076c6.402-2.163,14.043-3.057,16.012,2.107c1.742,4.57-4.967,8.79-10.156,10.833 c-5.641,2.22-12.6,1.306-14.404-3.575C354.032,221.644,361.028,219.355,364.354,217.076L364.354,217.076z"></path> <path fill="#B3D457" d="M172.112,90.141c-0.383,2.185,0.668,5.366-2.179,6.694c-2.322,1.081-4.351-0.977-6.358-2.065 c-0.68-0.368-1.344-0.795-1.946-1.281c-5.418-4.374-8.426-9.836-7.031-16.961c0.598-3.047,2.993-2.133,5.005-1.625 C166.89,76.747,172.003,82.87,172.112,90.141L172.112,90.141z"></path> <path fill="#B3D457" d="M146.674,106.888c9.4,0.205,14.837,4.595,16.276,12.525c0.615,3.391-0.214,4.873-3.772,4.706 c-7.133-0.337-13.042-2.862-16.72-9.285c-1.121-1.959-2.883-4.146-1.824-6.428C141.866,105.758,144.761,107.324,146.674,106.888 L146.674,106.888z"></path> <path fill="#B3D457" d="M346.636,111.493c-3.807,0.393-5.396-0.925-4.203-5.38c2.014-7.499,8.553-13.785,15.645-14.4 c2.178-0.192,4.068-0.384,4.43,2.724C363.464,102.681,355.405,111.627,346.636,111.493L346.636,111.493z"></path> <path fill="#B3D457" d="M356.677,141.985c-3.814,0.299-5.375-1.06-4.068-5.484c2.199-7.447,8.891-13.566,15.994-14.007 c2.186-0.135,4.078-0.278,4.363,2.833C373.718,133.594,365.438,142.336,356.677,141.985L356.677,141.985z"></path> <path fill="#B3D457" d="M113.625,199.508c-1.976-3.279-1.46-5.277,3.082-6.092c7.641-1.37,16.112,1.873,19.687,8.027 c1.096,1.891,2.076,3.522-0.581,5.17C128.758,210.988,117.235,207.5,113.625,199.508L113.625,199.508z"></path> <path fill="#B3D457" d="M374.788,170.897c4.252-0.784,10.287-2.19,12.301,2.25c1.781,3.927-3.111,7.701-6.73,10.22 c-4.859,3.386-10.104,3.71-15.391,0.84c-1.365-0.742-3.043-1.677-2.119-3.525C365.28,175.825,369.308,172.727,374.788,170.897 L374.788,170.897z"></path> <path fill="#009542" d="M296.231,399.809c-0.23-6.617-12.492-106.893-12.492-106.893c0.236-4.31,0.346-8.667,1.701-12.836 c3.76-11.575,5.398-23.554,5.994-35.615c0.467-9.412,3.23-17.776,8.271-25.632c7.754-12.084,15.297-24.302,22.926-36.467 c0.607-0.962,1.416-1.889,1.693-2.945c0.605-2.329,1.205-4.992-1.217-6.563c-2.367-1.537-4.758-0.842-6.805,1.144 c-4.514,4.383-8.277,9.416-12.385,14.151c-5.678,6.551-11.334,13.123-18.072,18.634c-0.98,0.802-1.99,2.571-3.375,1.587 c-1.107-0.782-0.695-2.65-0.234-3.869c2.996-7.905,4.361-16.271,6.961-24.278c3.061-9.436,5.043-19.152,7.697-28.692 c0.418-1.502,0.357-3.161,0.357-4.746c-0.006-2.519-0.99-4.517-3.635-5.104c-2.838-0.63-5.576-0.441-7.137,2.501 c-0.902,1.699-1.645,3.521-2.182,5.369c-4.539,15.639-12.475,29.79-19.424,44.37c-0.701,1.473-1.49,3.762-3.316,3.431 c-2.006-0.363-1.549-2.835-1.584-4.407c-0.143-6.149-0.057-12.305-0.057-18.456c0.074,0,0.148,0,0.225,0 c0-11.854-0.025-23.709,0.02-35.561c0.01-2.308-0.236-4.563-0.893-6.752c-0.869-2.9-2.416-5.324-5.785-5.451 c-3.456-0.13-5.319,2.016-6.442,5.09c-1.642,4.489-1.712,9.211-1.782,13.837c-0.234,15.208-2.798,30.167-4.415,45.226 c-0.266,2.471-0.292,6.086-3.296,6.502c-2.793,0.384-3.64-3.077-4.667-5.21c-6.685-13.892-11.086-28.641-15.843-43.248 c-1.071-3.296-2.633-6.035-5.695-7.769c-3.944-2.229-7.335-0.672-8.023,3.824c-0.703,4.574-0.055,9.089,1.019,13.554 c3.865,16.048,8.292,31.967,10.908,48.291c1.041,6.511,2.26,13.003,1.191,19.692c-1.485,9.301-8.169,13.761-17.298,11.214 c-5.922-1.652-10.888-5.119-15.893-8.505c-3.68-2.49-7.242-5.155-11.229-7.176c-1.662-0.843-3.408-1.315-5.204-1.567 c-3.17-0.446-6.319,1.355-7.567,4.146c-1.293,2.885-0.157,4.944,2.038,6.881c13.865,12.22,26.96,25.251,40.015,38.32 c2.497,2.5,5.319,4.584,8.332,6.495c5.952,3.777,10.654,8.979,14.56,14.75c1.994,2.947,1.906,6.799,1.767,10.307l-11.418,98.427 H296.231L296.231,399.809z"></path> <path fill="#B3D457" d="M224.523,399.809h60.49c0,0-8.176-94.57-10.502-107.273c-0.365-5.748-1.736-11.626,0.014-17.269 c2.27-7.332,3.34-14.874,4.838-22.348c1.014-5.059,1.094-10.439,4.191-14.901c6.594-9.505,13.209-18.995,19.926-28.413 c1.141-1.602,1.885-2.895,0.334-4.539c-1.43-1.515-3.047-2.033-4.982-0.97c-1.855,1.02-3.32,2.473-4.74,4.015 c-5.248,5.708-10.525,11.391-15.838,17.039c-1.568,1.669-3.295,3.186-5.832,3.522c-0.385-2.065,0.549-3.729,1.156-5.421 c3.996-11.107,6.889-22.535,9.996-33.904c0.447-1.642,0.479-3.181-0.107-4.756c-0.58-1.547-1.637-2.489-3.334-2.608 c-1.676-0.119-3.314-0.045-4.207,1.694c-0.896,1.744-1.871,3.476-2.514,5.316c-3.283,9.421-7.879,18.237-12.307,27.13 c-0.779,1.563-1.305,4.429-3.164,4.021c-2.449-0.538-1.617-3.436-1.627-5.401c-0.055-11.932-0.041-23.862-0.018-35.794 c0.006-3.018-0.682-5.571-3.988-6.479c-4.213-1.153-6.624,0.825-7.11,5.995c-0.563,5.989-0.89,12.001-1.453,17.99 c-0.641,6.794-1.393,13.581-2.187,20.36c-0.155,1.319-0.222,3.037-1.829,3.448c-1.807,0.463-1.923-1.139-2.748-2.37 c-0.576-0.856-1.046-1.804-1.45-2.758c-2.826-6.704-4.918-13.424-7.731-20.133c-1.562-3.722-1.963-7.656-4.228-11.06 c-1.39-2.086-3.211-3.391-5.86-2.589c-2.588,0.785-3.017,2.992-3.111,5.255c-0.14,3.405,0.864,6.634,1.744,9.87 c3.095,11.374,4.417,22.668,6.891,34.198c1.637,7.631-2.322,12.519-10.083,12.562c-5.982,0.035-11.682-1.41-17.181-3.699 c-4.288-1.787-8.695-2.25-13.25-1.281c-1.866,0.399-3.772,0.838-3.839,3.243c-0.065,2.213,0.123,4.154,2.797,5.229 c5.247,2.106,10.464,4.38,15.086,7.735c9.083,6.6,18.105,13.279,27.212,19.847c3.487,2.514,5.528,5.859,6.357,9.985 c0.8,3.97,1.482,7.96,1.697,12.019L224.523,399.809L224.523,399.809z"></path> <polygon fill="#65A844" points="56.964,497.679 56.868,497.679 43.188,473.679 35.604,473.679 35.604,508.143 42.325,508.143 42.325,483.566 42.42,483.566 56.484,508.143 63.685,508.143 63.685,473.679 56.964,473.679 56.964,497.679 "></polygon> <path fill="#65A844" d="M93.718,489.326c0-6.287-6.576-7.392-10.176-7.392c-5.232,0-10.656,1.104-11.424,8.928h6.48 c0.192-1.487,0.768-3.552,4.128-3.552c1.728,0,4.416,0.144,4.416,2.977c0,1.439-1.296,1.871-2.353,2.016l-6.048,0.912 c-4.271,0.624-7.439,3.168-7.439,8.16c0,5.279,3.936,7.439,7.776,7.439c4.56,0,6.72-2.112,8.256-3.696 c0.144,1.44,0.24,1.824,0.624,3.024h7.248v-1.008c-0.815-0.288-1.488-0.96-1.488-3.984V489.326L93.718,489.326z M87.142,498.975 c0,3.12-3.024,5.04-6,5.04c-1.296,0-3.12-0.72-3.12-3.072c0-2.784,2.064-3.408,4.56-3.84c2.784-0.433,3.888-0.864,4.56-1.392 V498.975L87.142,498.975z"></path> <path fill="#65A844" d="M110.215,475.694h-6.72v6.912h-3.456v4.8h3.456v15.504c0,3.313,1.056,5.521,6.864,5.521h0.864 c1.056,0,2.112-0.048,3.168-0.097v-5.088c-0.48,0.049-0.96,0.097-1.392,0.097c-2.736,0-2.784-0.576-2.784-2.064v-13.872h4.176v-4.8 h-4.176V475.694L110.215,475.694z"></path> <path fill="#65A844" d="M143.945,482.606h-6.72v14.736c0,4.56-2.977,5.808-5.185,5.808c-2.063,0-4.368-0.768-4.368-4.704v-15.84 h-6.72v16.8c0,6.528,3.648,9.408,8.688,9.408c3.552,0,6.24-1.536,7.776-4.271h0.096v3.6h6.432V482.606L143.945,482.606z"></path> <path fill="#65A844" d="M153.626,508.143h6.72v-13.296c0-2.832,0.96-6.097,6.192-6.097c0.624,0,1.344,0,1.92,0.097v-6.816 c-0.432-0.048-0.864-0.096-1.296-0.096c-4.08,0-5.616,2.496-7.008,5.088h-0.096v-4.416h-6.432V508.143L153.626,508.143z"></path> <path fill="#65A844" d="M188.412,500.654c-0.528,1.824-2.448,2.784-4.32,2.784c-5.424,0-5.808-4.32-6-6.24h17.52v-1.199 c0-11.664-6.96-14.064-12-14.064c-11.184,0-12.24,9.84-12.24,12.912c0,10.512,5.52,13.968,12.72,13.968 c4.368,0,9.456-2.016,11.232-8.16H188.412L188.412,500.654z M178.284,492.831c0.384-3.36,2.064-5.377,5.232-5.377 c2.16,0,4.8,1.248,5.184,5.377H178.284L178.284,492.831z"></path> <polygon fill="#65A844" points="249.276,473.679 223.932,473.679 223.932,508.143 250.092,508.143 250.092,502.047 230.988,502.047 230.988,493.119 247.788,493.119 247.788,487.022 230.988,487.022 230.988,479.774 249.276,479.774 249.276,473.679 "></polygon> <path fill="#65A844" d="M280.749,473.679h-6.721v12.24h-0.096c-1.055-1.633-3.072-3.984-7.391-3.984 c-5.617,0-10.609,4.32-10.609,13.151c0,7.009,3.168,13.729,10.752,13.729c2.785,0,5.76-1.008,7.393-3.888h0.096v3.216h6.576 V473.679L280.749,473.679z M262.845,495.566c0-4.031,1.441-7.824,5.713-7.824c4.607,0,5.76,4.129,5.76,8.208 c0,3.792-1.68,7.345-5.951,7.345C264.046,503.295,262.845,498.591,262.845,495.566L262.845,495.566z"></path> <path fill="#65A844" d="M311.312,482.606h-6.721v14.736c0,4.56-2.977,5.808-5.184,5.808c-2.064,0-4.369-0.768-4.369-4.704v-15.84 h-6.719v16.8c0,6.528,3.646,9.408,8.688,9.408c3.553,0,6.24-1.536,7.775-4.271h0.096v3.6h6.434V482.606L311.312,482.606z"></path> <path fill="#65A844" d="M333.808,498.83c0,1.2-1.152,4.465-4.561,4.465c-5.088,0-5.184-5.521-5.184-8.305 c0-3.168,1.105-7.392,5.328-7.392h0.336c2.881,0,3.84,2.496,4.129,4.128h6.814c-0.623-7.968-7.246-9.792-11.279-9.792 c-8.641,0-12.24,5.904-12.24,14.16c0,5.376,2.209,12.72,11.809,12.72c9.359,0,11.424-7.344,11.664-9.984H333.808L333.808,498.83z"></path> <path fill="#65A844" d="M368.017,489.326c0-6.287-6.574-7.392-10.176-7.392c-5.232,0-10.656,1.104-11.424,8.928h6.48 c0.191-1.487,0.768-3.552,4.129-3.552c1.727,0,4.416,0.144,4.416,2.977c0,1.439-1.297,1.871-2.354,2.016l-6.047,0.912 c-4.271,0.624-7.441,3.168-7.441,8.16c0,5.279,3.938,7.439,7.777,7.439c4.559,0,6.719-2.112,8.256-3.696 c0.145,1.44,0.24,1.824,0.623,3.024h7.248v-1.008c-0.814-0.288-1.488-0.96-1.488-3.984V489.326L368.017,489.326z M361.442,498.975 c0,3.12-3.025,5.04-6,5.04c-1.297,0-3.121-0.72-3.121-3.072c0-2.784,2.064-3.408,4.561-3.84c2.783-0.433,3.887-0.864,4.561-1.392 V498.975L361.442,498.975z"></path> <path fill="#65A844" d="M383.556,475.694h-6.721v6.912h-3.457v4.8h3.457v15.504c0,3.313,1.057,5.521,6.863,5.521h0.865 c1.055,0,2.111-0.048,3.168-0.097v-5.088c-0.48,0.049-0.961,0.097-1.393,0.097c-2.736,0-2.783-0.576-2.783-2.064v-13.872h4.176 v-4.8h-4.176V475.694L383.556,475.694z"></path> <path fill="#65A844" d="M395.157,482.606v25.536h6.719v-25.536H395.157L395.157,482.606z M401.876,473.343h-6.719v6.24h6.719 V473.343L401.876,473.343z"></path> <path fill="#65A844" d="M434.935,495.374c0-9.216-6.191-13.439-13.057-13.439c-6.863,0-13.057,4.224-13.057,13.439 c0,9.217,6.193,13.44,13.057,13.44C428.743,508.814,434.935,504.591,434.935,495.374L434.935,495.374z M428.022,495.374 c0,3.265-0.961,7.776-6.145,7.776s-6.145-4.512-6.145-7.776c0-3.264,0.961-7.775,6.145-7.775S428.022,492.11,428.022,495.374 L428.022,495.374z"></path> <path fill="#65A844" d="M463.767,490.479c0-5.616-3.887-8.544-8.879-8.544c-4.848,0-6.768,2.88-7.68,4.416h-0.096v-3.744h-6.434 v25.536h6.721v-14.641c0-3.888,2.305-5.903,5.279-5.903c4.273,0,4.369,3.168,4.369,5.04v15.504h6.719V490.479L463.767,490.479z"></path> <polygon fill="#65A844" points="35.823,459.81 44.726,459.81 44.726,442.343 61.116,442.343 61.116,459.81 70.02,459.81 70.02,419.317 61.116,419.317 61.116,434.856 44.726,434.856 44.726,419.317 35.823,419.317 35.823,459.81 "></polygon> <path fill="#65A844" d="M73.536,459.81h9.017l3.176-9.017h15.142l3.062,9.017h9.244l-15.142-40.492h-9.13L73.536,459.81 L73.536,459.81z M93.329,429.299h0.113l5.104,14.858H88.054L93.329,429.299L93.329,429.299z"></path> <polygon fill="#65A844" points="116.694,459.81 125.03,459.81 125.03,432.701 125.144,432.701 141.987,459.81 150.891,459.81 150.891,419.317 142.554,419.317 142.554,446.482 142.441,446.482 125.541,419.317 116.694,419.317 116.694,459.81 "></polygon> <path fill="#65A844" d="M158.717,459.81h17.467c12.363,0,18.375-8.733,18.375-20.473c0-13.44-7.883-20.02-18.375-20.02h-17.467 V459.81L158.717,459.81z M167.621,426.804h6.352c8.847,0,11.682,5.218,11.682,13.384c0,8.961-4.934,12.137-10.094,12.137h-7.94 V426.804L167.621,426.804z"></path> <polygon fill="#65A844" points="199.833,447.787 216.904,447.787 216.904,440.868 199.833,440.868 199.833,447.787 "></polygon> <polygon fill="#65A844" points="223.823,459.81 232.726,459.81 232.726,419.317 223.823,419.317 223.823,459.81 "></polygon> <polygon fill="#65A844" points="240.553,459.81 248.889,459.81 248.889,432.701 249.003,432.701 265.847,459.81 274.749,459.81 274.749,419.317 266.413,419.317 266.413,446.482 266.3,446.482 249.4,419.317 240.553,419.317 240.553,459.81 "></polygon> <polygon fill="#65A844" points="281.669,447.787 298.739,447.787 298.739,440.868 281.669,440.868 281.669,447.787 "></polygon> <polygon fill="#65A844" points="305.657,459.81 314.562,459.81 314.562,442.343 330.952,442.343 330.952,459.81 339.854,459.81 339.854,419.317 330.952,419.317 330.952,434.856 314.562,434.856 314.562,419.317 305.657,419.317 305.657,459.81 "></polygon> <path fill="#65A844" d="M343.372,459.81h9.016l3.178-9.017h15.141l3.063,9.017h9.244l-15.143-40.492h-9.129L343.372,459.81 L343.372,459.81z M363.163,429.299h0.113l5.105,14.858H357.89L363.163,429.299L363.163,429.299z"></path> <polygon fill="#65A844" points="386.528,459.81 394.866,459.81 394.866,432.701 394.979,432.701 411.823,459.81 420.726,459.81 420.726,419.317 412.39,419.317 412.39,446.482 412.276,446.482 395.376,419.317 386.528,419.317 386.528,459.81 "></polygon> <path fill="#65A844" d="M428.554,459.81h17.467c12.363,0,18.375-8.733,18.375-20.473c0-13.44-7.883-20.02-18.375-20.02h-17.467 V459.81L428.554,459.81z M437.456,426.804h6.352c8.848,0,11.684,5.218,11.684,13.384c0,8.961-4.934,12.137-10.096,12.137h-7.939 V426.804L437.456,426.804z"></path> </g> </svg> 