<svg xmlns="http://www.w3.org/2000/svg" viewBox="0 0 32 32" fill="none">
  <!-- Open book: two pages + spine; leaf rises from spine (edu + nature) -->
  <!-- Left page -->
  <path d="M6 9 L6 24 C6 26 10 26 14 25 L14 8 C10 7 6 8 6 9 Z" fill="#e4e4e7" stroke="#a1a1aa" stroke-width="0.6"/>
  <!-- Right page -->
  <path d="M18 8 L18 25 C22 26 26 26 26 24 L26 9 C26 8 22 7 18 8 Z" fill="#e4e4e7" stroke="#a1a1aa" stroke-width="0.6"/>
  <!-- Spine -->
  <path d="M14 8 L16 7 L18 8 L18 25 L16 26 L14 25 Z" fill="#d4d4d8"/>
  <!-- Leaf from spine (two-tone green, matches logo leaf) -->
  <path d="M16 12 C11 9 9 14 13 18 C16 16 19 18 23 14 C27 11 21 8 16 12 Z" fill="#059669"/>
  <path d="M16 12 C21 9 23 14 19 18 C16 16 13 18 9 14 C5 11 11 8 16 12 Z" fill="#10b981"/>
  <line x1="16" y1="18" x2="16" y2="24" stroke="#059669" stroke-width="1.2" stroke-linecap="round"/>
</svg>
